<svg xmlns="http://www.w3.org/2000/svg" viewBox="0 0 56 56" width="56" height="56" role="img" aria-label="icon"><title>icon</title><style></style><rect x="1" y="1" width="54" height="54" rx="14" fill="#2457f51f" stroke="#5b82ff" stroke-width="1.2" /><g transform="translate(14,14) scale(1.17)"><path d="M7 5v14M7 5a2 2 0 1 0 0-4 2 2 0 0 0 0 4zM7 23a2 2 0 1 0 0-4M17 19V10a3 3 0 0 0-3-3h-3M13 4l-3 3 3 3M17 23a2 2 0 1 0 0-4 2 2 0 0 0 0 4z" fill="none" stroke="#5b82ff" stroke-width="1.9" stroke-linecap="round" stroke-linejoin="round"/></g></svg>
